<?xml version="1.0" standalone="no"?>
<!DOCTYPE svg PUBLIC "-//W3C//DTD SVG 20010904//EN"
 "http://www.w3.org/TR/2001/REC-SVG-20010904/DTD/svg10.dtd">
<svg version="1.0" xmlns="http://www.w3.org/2000/svg"
 width="700.000000pt" height="700.000000pt" viewBox="0 0 700.000000 700.000000"
 preserveAspectRatio="xMidYMid meet">
<metadata>
Created by potrace 1.14, written by Peter Selinger 2001-2017
</metadata>
<g transform="translate(0.000000,700.000000) scale(0.100000,-0.100000)"
fill="#000000" stroke="none">
<path d="M3028 5415 c-2 -2 -21 -5 -43 -8 -192 -26 -364 -133 -475 -297 -20
-30 -244 -465 -496 -967 l-459 -911 -5 1057 -5 1058 -60 -1 -60 -1 0 -1317 c0
-725 2 -1318 5 -1318 3 0 182 352 399 783 680 1350 760 1507 791 1552 120 175
348 271 560 235 194 -33 349 -146 430 -315 60 -124 63 -155 56 -640 -14 -1025
-18 -1295 -20 -1378 -1 -48 1 -84 5 -80 4 5 49 91 100 193 325 648 635 1093
1019 1466 265 256 610 478 888 568 43 15 60 28 97 76 24 32 58 69 75 83 16 14
30 28 30 30 0 3 -26 -1 -57 -10 -283 -71 -637 -251 -888 -451 -381 -302 -742
-742 -1049 -1277 l-86 -150 5 360 c12 795 13 1003 4 1062 -32 223 -173 419
-370 516 -52 25 -121 53 -155 61 -52 14 -227 29 -236 21z"/>
<path d="M580 5240 c-2 -2353 1 -2951 14 -3021 31 -159 93 -277 205 -390 160
-160 329 -229 561 -230 246 -2 485 129 624 340 24 37 85 149 136 251 167 334
682 1355 686 1359 2 2 1 -139 -1 -315 -12 -706 -13 -971 -4 -1024 43 -248 195
-449 414 -551 304 -140 654 -74 873 165 71 79 112 151 177 311 442 1095 970
1819 1530 2098 50 25 102 49 118 52 37 10 42 22 15 36 -13 7 -40 25 -62 42
l-38 30 -67 -32 c-104 -52 -222 -126 -323 -203 -180 -138 -428 -408 -599 -653
-52 -75 -229 -352 -229 -359 0 -2 -23 -43 -51 -92 -113 -195 -303 -597 -409
-864 -58 -146 -94 -211 -157 -280 -69 -76 -162 -134 -270 -169 -147 -48 -323
-33 -468 40 -160 82 -277 231 -320 409 -13 55 -14 127 -10 470 4 388 16 1200
19 1362 0 42 -2 74 -6 70 -4 -4 -136 -263 -294 -577 -633 -1258 -743 -1475
-768 -1511 -119 -176 -326 -283 -536 -279 -297 6 -543 202 -616 490 -16 65
-18 173 -18 1600 l-1 1530 -62 0 -63 1 0 -106z"/>
<path d="M791 3817 l0 -1532 23 -77 c39 -132 115 -235 229 -309 94 -61 165
-82 295 -85 98 -2 122 1 185 22 111 38 212 112 277 204 14 18 144 271 290 561
810 1609 935 1857 938 1854 4 -3 2 -304 -3 -595 -3 -209 -16 -1135 -20 -1415
-1 -115 3 -189 12 -230 50 -217 207 -367 428 -409 174 -33 341 19 471 149 66
66 100 124 165 287 22 57 73 175 112 263 426 964 939 1623 1481 1905 l91 48
-34 54 -34 55 -76 -40 c-99 -52 -253 -153 -349 -230 -91 -73 -274 -254 -358
-352 -32 -38 -62 -72 -65 -75 -20 -17 -182 -240 -261 -361 -226 -342 -432
-744 -629 -1228 -69 -169 -84 -195 -145 -251 -162 -149 -423 -138 -572 24 -54
59 -78 104 -98 181 -14 51 -14 109 1 1075 2 157 7 501 11 765 3 264 7 514 8
555 1 41 -2 87 -6 101 -15 45 -72 61 -114 32 -6 -5 -172 -327 -369 -718 -197
-390 -493 -978 -657 -1305 -165 -327 -315 -615 -334 -639 -45 -59 -121 -115
-192 -141 -66 -25 -180 -30 -252 -10 -156 42 -278 169 -311 322 -9 38 -12 479
-13 1563 l-1 1509 -63 2 -62 2 1 -1531z"/>
<path d="M1001 3830 c0 -1467 1 -1517 20 -1576 46 -147 198 -245 360 -231 82
7 155 42 213 101 44 46 41 40 911 1771 240 479 447 885 459 903 62 95 211 85
263 -18 23 -44 23 -48 18 -350 -5 -334 -11 -682 -21 -1415 -4 -264 -7 -532 -8
-595 -3 -171 17 -239 89 -313 113 -116 303 -132 430 -35 59 45 86 90 155 259
31 79 69 169 83 199 13 30 35 80 48 110 47 114 235 481 327 640 137 236 338
531 462 674 103 119 235 256 330 342 119 107 327 249 461 315 66 32 66 33 58
63 -4 17 -10 44 -13 60 -3 16 -7 30 -9 33 -2 2 -48 -19 -102 -47 -396 -203
-772 -567 -1111 -1075 -162 -242 -371 -622 -490 -890 -73 -164 -142 -323 -183
-425 -49 -123 -66 -145 -128 -175 -96 -47 -218 -3 -266 96 -17 35 -17 30 9
1764 11 730 11 752 -13 806 -25 57 -84 118 -138 144 -23 10 -71 20 -112 23
-60 4 -79 1 -125 -20 -29 -14 -69 -41 -88 -60 -25 -25 -112 -189 -294 -549
-142 -283 -392 -779 -556 -1104 -163 -324 -344 -682 -400 -795 -57 -113 -114
-219 -127 -237 -71 -93 -240 -97 -325 -7 -62 66 -58 -42 -58 1618 l0 1515 -65
-2 -65 -2 1 -1515z"/>
<path d="M1216 5335 c-2 -7 -5 -684 -5 -1504 0 -1663 -6 -1538 69 -1580 56
-31 122 -24 161 18 10 10 178 337 374 727 305 605 921 1825 961 1904 25 49 98
113 163 143 57 27 76 31 146 30 176 -2 313 -102 359 -263 18 -60 18 -82 -9
-1805 -10 -628 -9 -710 9 -737 20 -31 56 -48 101 -48 57 0 87 38 148 190 171
424 401 881 600 1189 62 96 187 279 212 309 8 10 46 58 85 107 278 352 595
623 918 785 96 47 195 90 210 90 4 0 8 -37 8 -83 3 -161 81 -302 219 -396 271
-185 645 -51 751 269 26 79 23 215 -6 299 -133 392 -656 461 -884 117 -34 -51
-40 -55 -115 -79 -284 -92 -621 -312 -901 -589 -154 -152 -274 -292 -414 -482
-85 -115 -296 -436 -296 -450 0 -1 -31 -57 -68 -123 -107 -187 -211 -395 -340
-683 -11 -25 -41 -96 -67 -157 -26 -62 -48 -113 -49 -113 -2 0 -2 55 0 123 2
67 5 309 8 537 3 228 8 588 12 800 12 794 12 872 -2 938 -28 136 -129 266
-256 330 -233 117 -506 44 -643 -172 -26 -41 -946 -1863 -1244 -2463 -42 -84
-79 -153 -83 -153 -5 0 -8 672 -8 1493 l0 1492 -60 1 c-38 1 -61 -3 -64 -11z
m5162 -181 c115 -56 197 -168 209 -289 5 -50 5 -50 -33 -69 -94 -45 -160 -51
-211 -21 -15 9 -50 46 -77 81 -101 133 -172 184 -279 199 -47 7 -48 8 -30 27
29 32 72 60 132 85 45 18 73 23 138 22 71 -2 91 -6 151 -35z m-348 -245 c49
-26 56 -33 135 -129 83 -102 97 -114 153 -136 47 -19 172 -15 212 6 21 11 21
11 6 -17 -65 -123 -235 -200 -380 -172 -119 22 -217 99 -269 209 -25 53 -31
79 -33 143 -2 92 2 115 25 120 33 7 117 -6 151 -24z"/>
</g>
</svg>
