<?xml version="1.0" encoding="UTF-8"?>
<svg id="Layer_1" data-name="Layer 1" xmlns="http://www.w3.org/2000/svg" version="1.1" viewBox="0 0 273.4 170.7">
  <defs>
    <style>
      .cls-1 {
        fill: #008d62;
        stroke-width: 0px;
      }
    </style>
  </defs>
  <path class="cls-1" d="M267,10.9c-4.1-4.2-9.7-6.6-15.6-6.6-8.8,0-16.5,5-20.1,12.5-1.4.3-3,.8-4.6,1.4,0,0,0,0,0,0-.4.1-.8.3-1.1.4-1.5.5-3,1.2-4.6,1.9h0c-34.4,15.4-64.5,53.9-88.4,113.5l1.4-102.1c.2-10.5-6.6-19.3-16.8-21.8-10.2-2.5-20.3,2.1-25,11.5l-57.6,114.4c0,.1-.1.2-.1.2,0,0-.1,0-.2,0-.1,0-.2,0-.2,0,0,0,0-.1,0-.2V3.2h-5.7v132.7c0,3,1.7,5.1,4.6,5.8,2.9.7,5.4-.5,6.7-3.1L97.2,24.2c3.5-7,11-10.4,18.6-8.6,7.6,1.9,12.6,8.4,12.5,16.2l-1.5,105.5c0,3.9,3.1,4.8,4.1,5,.2,0,.6.1,1.1.1,1.4,0,3.5-.5,4.5-3.2,24.1-61.3,54.4-100.2,88.9-114.5,0,0,0,0,0,0,1.4-.6,2.7-1.1,3.9-1.5-.1,1-.2,2-.2,3.1-.1,12,9.4,21.9,21.4,22.3.2,0,.4,0,.6,0,5.9,0,11.5-2.2,15.7-6.3,4.2-4.1,6.6-9.7,6.6-15.6,0-5.9-2.2-11.5-6.3-15.7ZM262.8,38.2c-3.1,3.1-7.3,4.8-11.7,4.7-9.1,0-16.4-7.5-16.3-16.6,0-1.6.3-3.2.7-4.7,7.6-1.1,10.2,2.6,13,6.3,2.4,3.2,5.1,7,10.5,7.2,2,0,4.3-.3,7-1.3-.8,1.6-1.9,3.1-3.2,4.4ZM253,24.6c-2.8-3.9-6.3-8.6-14.4-8.8,3.1-3.6,7.7-5.9,12.8-5.9.1,0,.3,0,.4,0,4.2.2,8.2,1.9,11.2,4.9,3.1,3.1,4.8,7.3,4.7,11.7,0,0,0,.2,0,.2-9.4,5-11.3,2.4-14.7-2.2Z"/>
  <path class="cls-1" d="M111.7,5.7c2.1,0,4.3.3,6.4.8,12,2.9,19.9,13.2,19.7,25.5l-1.2,82.5,5.5-11.1c15.4-30.9,33-54.7,52.2-70.5,11-9,22.5-15.5,34.5-19.4,1.8-3,4.1-5.7,6.9-7.7-15.8,3.5-30.9,11.1-45,22.8-17.6,14.5-33.8,35.2-48.2,61.7l.8-58.1c.2-15-9.4-27.5-24-31.1-2.5-.6-5.1-.9-7.7-.9-11.8,0-22.5,6.7-27.9,17.4l-40.4,80.3V3.2h-5.7v118.3L88.8,19.9c4.4-8.8,13.2-14.3,22.9-14.3Z"/>
  <path class="cls-1" d="M30.7,150.8c7.1,1.7,14-1.6,17.3-8.1L105.6,28.4c1.9-3.7,5.4-4.3,7.9-3.7,2.5.6,5.4,2.8,5.4,6.9l-1.5,105.5c-.1,8.3,5.8,13.2,11.7,14.4.9.2,1.9.3,2.9.3,5.2,0,10.8-2.7,13.3-9.2,16.6-42.2,43.1-91,81.3-108.3-.6-1.8-1-3.7-1.2-5.7-40.5,17.6-68.3,68.2-85.4,111.9-2,5-6.6,6.1-9.9,5.4-3.3-.7-7.2-3.3-7.1-8.7l1.5-105.5c0-6-3.8-11.1-9.7-12.5-5.9-1.4-11.6,1.2-14.3,6.6l-57.6,114.4c-2.6,5.1-7.5,5.9-11,5.1-3.5-.8-7.5-3.8-7.5-9.5V3.2h-5.6v132.7c0,7.3,4.8,13.3,11.8,15Z"/>
  <path class="cls-1" d="M198.8,73.3c-15.1,18-29,43-41.3,74.2-4.2,10.7-14.2,17.6-25.5,17.6-15.4.1-28.2-12.5-27.8-28l1.1-78.8-45.6,90.5c-4.9,9.7-14.6,15.8-25.3,15.8h0c-2.3,0-4.6-.3-6.8-.8-13.1-3.1-22-14.3-22-27.8V3.2H0v132.7c0,16.2,10.6,29.6,26.3,33.3,2.7.6,5.4,1,8.1,1h0c12.9,0,24.5-7.2,30.4-18.9l34.5-68.6-.8,54.2c-.2,16.4,10.8,30,26.9,33.1,2.2.4,4.4.6,6.6.6,13.7,0,25.8-8.3,30.8-21.1,12-30.6,25.6-55.1,40.3-72.6,11.7-13.9,23.9-23.1,36.4-27.4-2.1-1-4-2.4-5.7-3.9-12.1,5.1-23.9,14.3-35.1,27.6Z"/>
  <path class="cls-1" d="M28.5,160c11.4,2.7,22.6-2.5,27.9-13l52.9-105.1-1.3,95.1c-.2,11.7,7.8,21.5,19.3,23.7,1.6.3,3.2.5,4.8.5h0c9.8,0,18.4-6,22-15.2,12.4-31.6,26.5-56.9,41.9-75.3,11.2-13.3,23-22.7,35.2-28.1-1.2-1.5-2.2-3.1-3.1-4.8-12.7,5.8-24.9,15.6-36.4,29.3-15.8,18.8-30.2,44.7-42.8,76.8-2.8,7-9.3,11.6-16.8,11.6h0c-1.2,0-2.5-.1-3.7-.4-8.8-1.7-14.8-9.2-14.7-18.1l1.5-105.6c0-1.6-1.2-2.9-2.8-3.1-1.5-.2-2.8.5-3.4,1.8l-57.6,114.3c-4.1,8.1-12.7,12.1-21.6,10-8.8-2.1-14.7-9.6-14.7-18.6V3.2h-5.7v132.7c0,11.7,7.7,21.4,19.1,24.1Z"/>
</svg>