<?xml version="1.0" encoding="UTF-8"?>
<svg id="Layer_1" data-name="Layer 1" xmlns="http://www.w3.org/2000/svg" version="1.1" viewBox="0 0 562 236.1">
  <defs>
    <style>
      .cls-1 {
        fill: #008d62;
        stroke-width: 0px;
      }
    </style>
  </defs>
  <path class="cls-1" d="M111.3,5.1c0,4.9-5.7,2.1-7.9,11.6l-20.6,89.7c-.4,2.2-1.8,3.4-5.7,3.4s-5.7-1.2-6.1-3.4l-14-61.8-15.8,61.8c-.6,2.2-1.8,3.4-6.1,3.4s-5.2-1.2-5.8-3.4L7.9,17.3C5.5,7.3,0,10,0,5.1s1.3-2.4,2.4-2.4c2.1,0,5.5.4,9.5.4s6.3-.4,8.8-.4,3.3.9,3.3,2.8c0,4.2-5.5,3.7-5.5,8.2s.2,3.9,1.5,9.3l16.9,70.9L53.4,29.2l-2.7-11.9c-2.2-10-7.6-7.5-7.6-12.2s1.2-2.4,2.5-2.4,4.6.4,9,.4,6.4-.4,9.1-.4,3,1,3,2.8c0,4-5.5,3-5.5,8.2s.4,5.1,1.3,9.3l16,70.7,15.5-70.7c1.2-5.4,1.6-7.3,1.6-9.3,0-4.5-5.8-4.2-5.8-8.2s1.5-2.8,3.3-2.8,5.2.4,8.5.4,5.5-.4,7.2-.4,2.5.9,2.5,2.4"/>
  <path class="cls-1" d="M115.2,106.4c0-5.1,6.7-1.8,6.7-11.6V16.6c0-9.8-6.7-6.4-6.7-11.5s.9-2.5,2.7-2.5,5.4.4,9.4.4,7.3-.4,9.6-.4,2.7,1.2,2.7,2.5c0,5.1-6.9,1.6-6.9,11.5v78.2c0,9.9,6.9,6.6,6.9,11.6s-.9,2.4-2.7,2.4-5.5-.4-9.6-.4-7.2.4-9.6.4-2.5-1.2-2.5-2.4"/>
  <path class="cls-1" d="M221.3,5.1c0,5.1-6.9,1.6-6.9,11.5v88.8c0,3-1.8,4-3.4,4s-3.3-1-4.5-3.4l-41.6-83.7v72.5c0,9.7,8.4,6,8.4,11.6s-1.2,2.4-3,2.4-5.8-.4-9.1-.4-5.5.4-7.9.4-2.8-1.2-2.8-2.5c0-4.9,7-1.6,7-11.5V16.6c0-9.8-7-6.4-7-11.3s1-2.7,3-2.7,3.7.3,6.1.3,3.6-.2,4.6-.2c1.9,0,3.3.7,4.3,3l38.4,79.7V16.6c0-9.7-8.2-6-8.2-11.5s1.3-2.5,3-2.5c2.5,0,5.1.4,8.8.4s5.7-.4,8.1-.4,2.8,1,2.8,2.5"/>
  <path class="cls-1" d="M298.8,106.6c0,1.3-.9,2.2-2.2,2.2s-6.4-.4-10.4-.4-8.2.4-10.9.4-3.1-.9-3.1-2.8c0-3.9,6.4-2.8,6.4-7.8s-.3-2.5-.9-3.9l-18.8-44-12.2,16.4v28.1c0,9.8,6.9,6.6,6.9,11.6s-.9,2.4-2.7,2.4-5.5-.4-9.6-.4-7.2.4-9.5.4-2.5-1.2-2.5-2.4c0-5.1,6.7-1.8,6.7-11.6V16.6c0-9.8-6.7-6.4-6.7-11.5s.9-2.5,2.7-2.5,5.4.4,9.4.4,7.3-.4,9.6-.4,2.7,1.2,2.7,2.5c0,5.1-6.9,1.6-6.9,11.5v38.7l26.7-36.3c2.1-2.8,3.1-5.1,3.1-6.9,0-4.3-5.1-3-5.1-6.6s1.3-2.8,3.3-2.8,6.6.4,9.7.4,7.8-.4,9.6-.4,2.2.9,2.2,2.5c0,4-5.7,2.5-10.7,9.4l-19.3,25.8,23.3,53.9c4.2,9.8,9.4,7.2,9.4,12.2"/>
  <path class="cls-1" d="M341.9,108.3h-27.8c-3.9,0-7.6.4-9.1.4-2.2,0-3-1-3-2.5,0-4.9,6.7-1.6,6.7-11.5V16.6c0-9.8-6.7-6.4-6.7-11.5s.9-2.5,2.7-2.5,5.4.4,9.4.4,7.3-.4,9.6-.4,2.7,1.2,2.7,2.5c0,5.1-6.9,1.6-6.9,11.5v79.7c0,2.7.6,5.5,4,5.5h8.2c8.8,0,13-5.2,21.2-18.1,1.5-2.4,2.5-3.6,4.3-3.6s2.4.7,2.4,2.5-.4,3.9-3,10.9l-4.3,12.1c-1,3-2.1,5.7-4.2,5.7s-2.8-3-6.3-3"/>
  <path class="cls-1" d="M424,83c0,2.1-.7,4.9-2.8,10.9l-4.2,11.9c-1,3.1-2.2,5.5-4,5.5-2.8,0-3-3-6.4-3h-33.9c-3.9,0-7.6.4-9.1.4-2.2,0-3-1-3-2.5,0-4.9,6.7-1.6,6.7-11.5V16.6c0-9.8-6.7-6.4-6.7-11.3s.9-2.7,3-2.7,5.2.4,9.1.4h30.6c3,0,3.1-3,5.7-3s2.5,1.2,4.6,7.2l3.6,10.1c1.8,5.1,2.8,8.1,2.8,9.7s-1.2,2.5-2.4,2.5-2.5-1.3-3.7-3.3c-9.9-16.3-13.4-16.6-19.2-16.6h-8.5c-5.5,0-8.1.4-8.1,7.3v31.3c0,2.7,1.2,3.1,2.8,3.1h10.3c6.4,0,5.4-11.3,9.4-11.3s2.4,1,2.4,3.6-.3,7.2-.3,11,.3,7.8.3,11-.7,3.7-2.4,3.7c-4,0-3-11.5-9.4-11.5h-10.3c-1.6,0-2.8.4-2.8,3.1v33.1c0,5.1.4,7.5,8.1,7.5h11.8c8.2,0,13-6,19.8-17.8,1.3-2.4,2.5-3.4,4-3.4s2.2,1,2.2,2.4"/>
  <path class="cls-1" d="M494.8,106.3c0,1.6-1.5,2.5-2.8,2.5s-6.1-.4-10-.4-7.6.4-10.1.4-3.1-.9-3.1-2.8c0-3.6,5.2-3.3,5.2-7.2s-.9-4-1.5-5.4l-9.1-22.1c-1-2.4-1.6-2.7-3.1-2.5-4.2.3-8.7.1-10.9,0-1.5-.1-2.7.3-2.7,3v23c0,9.8,6.9,6.6,6.9,11.6s-.9,2.4-2.5,2.4c-2.4,0-5.7-.4-9.8-.4s-7.3.4-9.6.4-2.5-1.2-2.5-2.4c0-5.1,6.9-1.8,6.9-11.6V16.6c0-9.8-6.9-6.1-6.9-11.2s.9-2.8,3.3-2.8,4.8.4,8.7.4,9.8-.7,14.8-.7c20.6,0,34.9,13.4,34.9,34.8s-7.5,25.5-18.5,30l10.7,25.2c4.9,11.5,11.9,9.6,11.9,14M479,36.6c0-17.8-9.6-27.3-23.1-27.3s-9.3,4.3-9.3,9.3v37c0,5.1,1.8,6.7,7.9,6.7,16.6,0,24.5-9.1,24.5-25.7"/>
  <path class="cls-1" d="M37.9,229.2c0-6,7.9-1.8,7.9-11.6v-79.1c0-3.1-.4-5.8-4.6-5.8h-2.4c-6.3,0-9.8,2.8-17.5,16.7-1.2,2.1-2.1,3-3.6,3s-2.5-1.2-2.5-2.7.6-3.7,2.2-9.4l3-10.1c1.3-4.8,2.1-7.2,4.3-7.2s3,3,5.8,3h41c2.8,0,3-3,5.8-3s3,2.4,4.3,7.2l3,10.1c1.6,5.7,2.2,7.8,2.2,9.4s-1,2.7-2.5,2.7-2.4-.9-3.6-3c-7.9-13.7-11.2-16.7-17.5-16.7h-2.4c-4.2,0-4.6,2.7-4.6,5.8v79.1c0,9.9,7.8,5.7,7.8,11.6s-1,2.5-2.7,2.5c-2.8,0-6.1-.4-10.4-.4s-7.6.4-10.3.4-2.8-1.2-2.8-2.5"/>
  <path class="cls-1" d="M154.2,205.9c0,2.1-.7,4.9-2.8,10.9l-4.2,11.9c-1,3.1-2.2,5.5-4,5.5-2.8,0-3-3-6.4-3h-33.9c-3.9,0-7.6.4-9.1.4-2.2,0-3-1-3-2.5,0-4.9,6.7-1.6,6.7-11.5v-78.2c0-9.8-6.7-6.4-6.7-11.3s.9-2.7,3-2.7,5.2.4,9.1.4h30.6c3,0,3.1-3,5.7-3s2.5,1.2,4.6,7.2l3.6,10.1c1.8,5.1,2.8,8.1,2.8,9.7s-1.2,2.5-2.4,2.5-2.5-1.3-3.7-3.3c-9.8-16.3-13.4-16.6-19.3-16.6h-8.5c-5.5,0-8.1.4-8.1,7.3v31.3c0,2.7,1.2,3.1,2.8,3.1h10.3c6.4,0,5.4-11.3,9.4-11.3s2.4,1,2.4,3.6-.3,7.2-.3,11,.3,7.8.3,11-.7,3.7-2.4,3.7c-4,0-3-11.5-9.4-11.5h-10.3c-1.6,0-2.8.4-2.8,3.1v33.1c0,5.1.4,7.5,8.1,7.5h11.8c8.2,0,13-6,19.8-17.8,1.3-2.4,2.5-3.4,4-3.4s2.2,1,2.2,2.4"/>
  <path class="cls-1" d="M230,128c0,5.1-6.9,1.6-6.9,11.5v88.8c0,3-1.8,4-3.4,4s-3.3-1-4.5-3.4l-41.6-83.7v72.5c0,9.7,8.4,6,8.4,11.6s-1.2,2.4-3,2.4-5.8-.4-9.1-.4-5.5.4-7.9.4-2.8-1.2-2.8-2.5c0-4.9,7-1.6,7-11.5v-78.2c0-9.8-7-6.4-7-11.3s1-2.7,3-2.7,3.7.3,6.1.3,3.6-.2,4.6-.2c1.9,0,3.3.7,4.3,3l38.4,79.7v-68.8c0-9.7-8.2-6-8.2-11.5s1.3-2.5,3-2.5c2.5,0,5.1.4,8.8.4s5.7-.4,8.1-.4,2.8,1,2.8,2.5"/>
  <path class="cls-1" d="M308.3,128c0,5.1-6.9,1.6-6.9,11.5v88.8c0,3-1.8,4-3.4,4s-3.3-1-4.5-3.4l-41.6-83.7v72.5c0,9.7,8.4,6,8.4,11.6s-1.2,2.4-3,2.4-5.8-.4-9.1-.4-5.5.4-7.9.4-2.8-1.2-2.8-2.5c0-4.9,7-1.6,7-11.5v-78.2c0-9.8-7-6.4-7-11.3s1-2.7,3-2.7,3.7.3,6.1.3,3.6-.2,4.6-.2c1.9,0,3.3.7,4.3,3l38.4,79.7v-68.8c0-9.7-8.2-6-8.2-11.5s1.3-2.5,3-2.5c2.5,0,5.1.4,8.8.4s5.7-.4,8.1-.4,2.8,1,2.8,2.5"/>
  <path class="cls-1" d="M316.1,229.3c0-5.1,6.7-1.8,6.7-11.6v-78.2c0-9.8-6.7-6.4-6.7-11.5s.9-2.5,2.7-2.5,5.4.4,9.4.4,7.3-.4,9.6-.4,2.7,1.2,2.7,2.5c0,5.1-6.9,1.6-6.9,11.5v78.2c0,9.9,6.9,6.6,6.9,11.6s-.9,2.4-2.7,2.4-5.5-.4-9.6-.4-7.2.4-9.6.4-2.5-1.2-2.5-2.4"/>
  <path class="cls-1" d="M354.6,228.9l-3.4-12.4c-2.8-10-3.1-11.5-3.1-12.7s.9-2.7,2.4-2.7,2.4,1.2,3.9,3.9c7,12.5,15.1,21.2,24.6,21.2s15.8-6.4,15.8-18.8-10.4-22.2-21.2-29.2c-13-8.5-24-17.6-24-31.2s10.4-23.1,21-23.1,11.2,3,13.1,3,1.8-3.3,4.3-3.3,3,1.6,4.3,5.4l3.3,8.7c2.7,7,3.6,9.8,3.6,11.5s-1.2,2.4-2.4,2.4-1.9-.3-3.1-2.2c-5.8-9.8-13.3-18.1-21.9-18.1s-11.5,6.1-11.5,13.1,5.8,14.8,16.7,21.8c11.5,7.3,28.1,17.9,28.1,38.5s-10.3,28.8-25.4,28.8-13.7-4-15.8-4-2.4,4.5-5.4,4.5-3.1-2.2-3.9-4.9"/>
  <path class="cls-1" d="M489.9,235.9c-3.5.3-7,.3-10.4.1-13.8-.9-26.6-4.3-38.7-10.8-5.2-2.8-9.9-6.4-14.3-10.4-5.3-4.8-9.6-10.4-12.7-16.8-2.6-5.5-4-11.2-4.5-17.3-1-13.2,3.5-24.6,11.8-34.6,5.8-7.1,13-12.6,21.1-16.8,9.4-4.9,19.3-8,29.8-9.4,3.7-.5,7.5-.6,11.2-.8,10.4-.6,20.7.9,30.7,3.5,10.4,2.6,20,7.1,28.4,13.9,10,8.1,16.6,18.4,18.7,31.2,2,12,.8,23.6-4.9,34.5-4.2,7.9-10.1,14.3-17.4,19.3-10.7,7.4-22.6,11.6-35.4,13.3-4.5.6-9,.8-13.5,1.2,0,0,0,0,0,0M549.8,197.3c2.5-2.1,4.4-4.7,5.1-8.1,1.3-5.6,1.7-11.2,1.1-16.9-1.1-10.4-5.4-19.4-12.4-27-5.9-6.3-12.9-11-20.8-14.2-8.3-3.4-16.9-5.4-25.8-6.1-5.1-.4-10.2-.4-15.3-.3-3.4,0-6.8.4-10.1.8-9.9,1.4-19.2,4.6-27.9,9.4-5.5,3-10.5,6.7-14.8,11.1-3.3,3.3-6.2,7-8.5,11.1-4.5,8-6.3,16.6-5.1,25.8,1.2,9,5.3,16.8,11.3,23.5,6.2,6.9,13.5,12.2,21.9,16,11.4,5.2,23.4,7.8,35.9,8,5.1,0,10.3-.4,15.4-.9,10.4-1.1,20.3-3.8,29.6-8.9,6.3-3.4,11.6-7.9,16.2-13.4,1.4-1.6,2.2-2.7,2.2-2.7-.3.1-1.5,1-3.2,1.8-3.9,1.8-8.1,2.5-12.4,2.5-3.9,0-6.9-1.5-8.3-5.5-.1-.3-.3-.6-.5-.9-.2.1-.4.2-.4.3-.3.7-.5,1.3-.8,2-1.4,4.1-.5,3.4-4.7,3.4-2.1,0-2.1,0-2.3-1.9,0,0,0,0-.2-.2-2.4,1.6-5,2.9-8.1,2.3-3.2-.6-5-2.8-5.9-6-.5.6-.8,1-1.2,1.3-1.4,1.3-2.6,2.7-4.2,3.7-3.9,2.5-9.1,1.1-11.1-3-.5-.9-.8-.8-1.5-.3-1.5,1.2-2.9,2.6-4.6,3.3-3.8,1.7-7.6,1.8-11.1-.8-1.8-1.4-2.5-3.5-3.1-5.6-.1-.4-.3-.9-.5-1.6-.7.7-1.1,1.2-1.5,1.7-1.1,1.2-2.2,2.4-3.4,3.6-5,4.7-10.9,7-17.9,6.3-4.2-.4-7.7-2.2-10.5-5.2-2.6-2.8-4.2-6.1-5.1-9.8-1.4-5.3-1.1-10.7-.4-16.1,1.8-13.3,6.3-25.5,15.2-35.8,4.2-4.8,9.1-8.5,15.7-9.1,5.8-.6,11.1,2.1,12.8,8.2.6,2.2.7,4.4.5,6.6-.4,4.8-2,9.1-4.3,13.2-.2.4-1,.7-1.4.6-1.5-.4-3-.9-4.5-1.4-.8-.3-.9-.8-.5-1.5.6-1.2,1.3-2.5,1.8-3.8,1.5-3.5,2.8-7.1,2.6-11-.2-3.5-2-6.1-5.1-6.7-2.2-.5-3.9.5-5.6,1.6-3,2.1-5.2,5-7.2,8-5.9,9.2-9.8,19.2-11.6,30-.9,5.2-1.2,10.5.3,15.7.9,3,2.2,5.8,4.8,7.7,3.4,2.5,7.2,2.5,11.1,1.1,4.5-1.7,8.2-4.7,11.3-8.3,1.8-2.1,3.2-4.2,3.7-7.2,1.8-10.8,5-21.3,9.2-31.4,1.9-4.5,4.1-8.9,7.2-12.8,1.6-2,3.3-3.9,6.1-4.4,2.9-.6,5.3,1,5.6,3.9.1,1.3,0,2.7,0,4.1-.7,6.2-3.1,11.8-5.7,17.4-4.2,9-9.4,17.6-14.7,26-1.9,3-1.7,6.1-.6,9.2.7,1.9,2.5,2.7,4.4,2.1,1.1-.4,2.3-.8,3.2-1.5,3.3-2.7,6-5.9,7.3-10.2,1.2-4.3,2.6-8.5,3.9-12.7.3-1,.8-1.4,1.8-1.3,1.3,0,2.6,0,3.8,0,1.8,0,1.8,0,1.3,1.7-1.9,5.8-3.8,11.6-5.6,17.5-.5,1.5-.7,3.2-.8,4.8,0,1.7,1.4,2.6,2.9,1.8,1.1-.6,2.1-1.3,2.9-2.2,2.6-2.9,4.3-6.3,5.7-9.8,1.6-4,3-8.2,4.4-12.3.4-1.1,1-1.6,2.2-1.5,1.1,0,2.2,0,3.4,0,2,0,2.1.2,1.5,2.1-1.6,4.9-3.3,9.9-4.8,14.8-.7,2.3-1.2,4.7-1.5,7.1-.2,1.6,1.1,2.5,2.7,2,.5-.1,1-.3,1.4-.6,4-2.7,7.1-6.3,8.7-10.8,1.9-5.1,3.4-10.4,5.1-15.6,1.5-4.8,3.1-9.7,4.6-14.5,1.3-4.2,2.7-8.3,4-12.5.2-.7.5-1.4,1.4-1.4,1.7,0,3.4,0,5,0,.8,0,1.1.5.8,1.2-.1.3-.2.7-.3,1-3.1,9.3-6.2,18.6-9.4,27.9-.2.5-.3,1.1-.4,1.6.1,0,.2.1.3.2.4-.2.8-.5,1.2-.7,2.6-1.8,5.5-2.6,8.5-1.4,3.9,1.5,5.3,4.8,5.6,8.7.4,5.6-1,10.9-4.1,15.6-.2.3-.3.7-.6,1.5,0,0,4.7-2.3,7.7-4.8M538.9,181.9s0,0,0,0c-.6-1.6-2.4-2.2-3.9-1.4-.4.3-.9.6-1.3.9-2.1,1.8-3.4,4.2-4.5,6.7-1.4,3.1-2.6,6.3-2.3,9.8.1,1.7.7,3.3,2.5,4.1,1.7.7,3.1-.1,4.4-1.2.1-.1.2-.2.3-.3,3.1-3.6,4.5-7.9,5.3-12.7.3-2,.2-4-.5-5.9M473.3,181l1.8-3.1c1.8-3.1,3.5-6.3,5.2-9.4,3.4-6.1,6.1-12.5,7.7-19.3.3-1.4.5-2.8.6-4.3,0-.4,0-1.1-.5-1.3-.9-.3-1.6,1-3.1,3.9-4.7,9.8-8.1,20.2-11,30.7l-.8,2.8Z"/>
</svg>