<?xml version="1.0" standalone="no"?>
<!DOCTYPE svg PUBLIC "-//W3C//DTD SVG 20010904//EN"
 "http://www.w3.org/TR/2001/REC-SVG-20010904/DTD/svg10.dtd">
<svg version="1.0" xmlns="http://www.w3.org/2000/svg"
 width="160.000000pt" height="160.000000pt" viewBox="0 0 160.000000 160.000000"
 preserveAspectRatio="xMidYMid meet">
<metadata>
Created by potrace 1.14, written by Peter Selinger 2001-2017
</metadata>
<g transform="translate(0.000000,160.000000) scale(0.100000,-0.100000)"
fill="#000000" stroke="none">
<path d="M728 1535 c-2 -2 -21 -5 -43 -8 -69 -10 -105 -19 -111 -28 -3 -5 -12
-9 -20 -9 -36 0 -147 -67 -182 -109 -50 -60 -73 -81 -89 -81 -19 0 -69 -53
-108 -114 -86 -135 -125 -269 -120 -421 6 -237 99 -417 305 -594 47 -40 134
-82 179 -86 50 -4 90 -15 132 -36 47 -23 82 -31 144 -29 131 2 226 28 359 98
79 41 206 160 206 192 0 6 18 27 39 48 39 37 96 131 105 174 3 13 13 50 22 83
17 62 23 223 11 285 -20 106 -73 226 -143 325 -48 68 -70 89 -136 128 -26 15
-53 35 -60 45 -18 24 -74 62 -91 62 -8 0 -20 6 -26 14 -6 7 -26 17 -44 21 -17
4 -34 9 -37 10 -57 19 -278 42 -292 30z"/>
</g>
</svg>
